<mxfile host="app.diagrams.net" modified="2023-08-14T10:42:23.136Z" agent="Mozilla/5.0 (Windows NT 10.0; Win64; x64) AppleWebKit/537.36 (KHTML, like Gecko) Chrome/115.0.0.0 Safari/537.36" version="21.6.6" etag="UhuEp7FVxrTkpr6CC-J2" type="github">
  <diagram name="第 1 页" id="zSudoYBZM71YhAYstw-p">
    <mxGraphModel>
      <root>
        <mxCell id="0" />
        <mxCell id="1" parent="0" />
      </root>
    </mxGraphModel>
  </diagram>
</mxfile>
